<svg width="100%" height="100%" viewBox="0 0 20 20" fill="none" xmlns="http://www.w3.org/2000/svg">
<g clip-path="url(#clip0_3106_1713)">
<path d="M18.5655 1.42989C17.1752 0.0395785 14.9705 -0.352688 12.3538 0.322606C9.79659 0.983005 7.13514 2.59676 4.86595 4.87091C2.59676 7.1401 0.983005 9.79659 0.322606 12.3538C-0.352688 14.9656 0.0395785 17.1702 1.42989 18.5655C2.8202 19.9608 3.69908 19.9955 5.27311 19.9955C6.84714 19.9955 6.80246 19.8863 7.64161 19.6728C10.1988 19.0124 12.8602 17.3986 15.1294 15.1245C17.3986 12.8553 19.0124 10.1938 19.6777 7.63664C20.353 5.02484 19.9608 2.8202 18.5705 1.42493L18.5655 1.42989ZM19.1117 7.49761C18.4761 9.95549 16.917 12.5226 14.7173 14.7173C12.5176 16.912 9.95549 18.4761 7.49761 19.1117C5.09436 19.7324 3.08337 19.3947 1.84698 18.1534C0.605634 16.912 0.267987 14.906 0.888662 12.5027C1.52423 10.0449 3.08337 7.47775 5.28304 5.28304C7.48272 3.08834 10.0449 1.52423 12.5027 0.888662C13.2873 0.685081 14.0321 0.585773 14.7223 0.585773C16.1374 0.585773 17.3192 1.0128 18.1534 1.84698C19.3947 3.08834 19.7324 5.09436 19.1117 7.49761Z" fill="oklch(0.6978 0.1233 127.32)" stroke="oklch(0.6978 0.1233 127.32)" stroke-width="0.5"></path>
<path d="M14.895 6.64557L14.5077 6.23851L14.1005 5.81159L11.5533 8.23409L10.2474 4.97266L9.72607 5.18115L9.17989 5.39957L10.4858 8.66101H6.97032V7.18666H5.81836V8.66101V9.81269V14.1563H6.97032V9.81269H10.5503L9.46291 13.223L9.99917 13.3918L10.5652 13.5755L11.6725 10.0758L14.895 11.8331L15.1631 11.3367L15.4461 10.8204L12.308 9.10778L14.895 6.64557Z" fill="oklch(0.6978 0.1233 127.32)" stroke="oklch(0.6978 0.1233 127.32)" stroke-width="0.5"></path>
</g>
<defs>
<clipPath id="clip0_3106_1713">
<rect width="20.0003" height="19.9955" fill="none"></rect>
</clipPath>
</defs>
</svg>